<svg xmlns="http://www.w3.org/2000/svg" viewBox="0 0 32 32"><defs><style>.cls-3{fill:#30acc2}</style></defs><g id="Fitness"><path d="M30 29c-3.09 1-5.66 2-10 2-5.46 0-8.82-1.62-12-3l-2 3H1V15l2.34-.59A7.88 7.88 0 0 1 12 18c4.82-.64 8.49.85 11 4a15.24 15.24 0 0 1 .26-4c.72-3.59 0-4.83-1.26-7.95l6-2C31 16 32 19.35 30 29z" style="fill:#d1e6e9"/><circle cx="24" cy="7" r="6" style="fill:#68c7d3"/><circle class="cls-3" cx="24" cy="7" r="2"/><path d="m24.71 25.29-1.42 1.42C21.1 24.52 21 22.23 21 20.06c2.32 1.73 2 2.71 2 1.11a5.79 5.79 0 0 0 1.71 4.12z" style="fill:#a1d8df"/><path class="cls-3" d="M23 4h2v6h-2z"/><path class="cls-3" d="M21 6h6v2h-6z"/></g></svg>